<?xml version="1.0" standalone="no"?>
<!DOCTYPE svg PUBLIC "-//W3C//DTD SVG 20010904//EN"
 "http://www.w3.org/TR/2001/REC-SVG-20010904/DTD/svg10.dtd">
<svg version="1.0" xmlns="http://www.w3.org/2000/svg"
 width="400.000000pt" height="400.000000pt" viewBox="0 0 400.000000 400.000000"
 preserveAspectRatio="xMidYMid meet">
<metadata>
Created by potrace 1.11, written by Peter Selinger 2001-2013
</metadata>
<g transform="translate(0.000000,400.000000) scale(0.100000,-0.100000)"
fill="#000000" stroke="none">
<path d="M2443 3150 c-115 -30 -202 -83 -278 -169 -16 -19 -35 -39 -40 -45
-21 -22 -75 -123 -68 -129 3 -4 2 -7 -4 -7 -5 0 -10 -6 -10 -12 -1 -7 -7 -44
-15 -83 -25 -127 -6 -248 61 -391 45 -95 151 -257 197 -299 12 -11 280 -335
335 -405 158 -203 170 -485 24 -619 -120 -110 -221 -66 -315 137 -11 23 -19
45 -19 48 0 3 -6 15 -14 27 -8 12 -29 56 -47 97 -31 72 -47 109 -89 203 -10
23 -42 96 -71 162 -28 66 -60 138 -70 160 -10 22 -32 74 -50 115 -18 41 -40
93 -50 115 -9 22 -39 90 -65 150 -26 61 -60 137 -75 170 -14 33 -89 205 -166
383 -78 182 -144 322 -151 322 -7 0 -13 -5 -13 -11 0 -6 -7 -25 -15 -42 -13
-29 -38 -92 -199 -507 -32 -80 -63 -158 -70 -175 -44 -101 -44 -95 10 -213 19
-41 34 -75 34 -78 0 -2 9 -23 20 -47 87 -188 216 -493 209 -497 -4 -3 -141 -5
-304 -5 l-297 0 -20 -40 c-12 -22 -20 -41 -19 -43 1 -1 -16 -38 -38 -81 -148
-291 -265 -420 -403 -445 -36 -7 -53 -25 -25 -27 6 -1 209 -2 450 -3 369 -1
437 1 435 13 -2 8 -20 15 -50 17 -113 10 -226 95 -278 208 -36 77 -58 177 -55
243 2 26 3 60 4 75 2 53 4 53 322 52 162 -1 297 -2 300 -3 4 -1 81 -155 85
-171 0 -3 12 -30 27 -61 90 -196 76 -323 -39 -345 -33 -6 -47 -23 -21 -25 6
-1 300 -2 652 -3 731 -2 771 1 900 67 45 22 131 98 176 154 21 26 90 143 84
143 -2 0 3 19 11 42 23 66 27 97 27 193 0 86 -7 153 -20 185 -3 8 -7 22 -9 30
-2 9 -11 34 -20 55 -10 22 -18 45 -20 50 -3 18 -102 179 -123 202 -12 12 -21
25 -21 28 0 3 -23 34 -51 68 -28 34 -58 71 -67 82 -47 58 -220 278 -259 330
-85 114 -133 237 -133 340 2 148 107 257 250 258 41 0 61 5 64 14 6 15 4 16
-64 34 -73 19 -89 20 -235 24 -113 3 -154 0 -212 -15z"/>
</g>
</svg>
